<?xml version="1.0" encoding="utf-8"?>
<!-- Generator: Adobe Illustrator 19.1.0, SVG Export Plug-In . SVG Version: 6.00 Build 0)  -->
<svg version="1.1" id="Layer_1" xmlns="http://www.w3.org/2000/svg" xmlns:xlink="http://www.w3.org/1999/xlink" x="0px" y="0px"
	 viewBox="0 0 170.6399994 18" style="enable-background:new 0 0 170.6399994 18;" xml:space="preserve">
<g>
	<g>
		<g>
			<path d="M67.4205475,16.8979492l5.7692413-15.345171h2.1512146l-5.8102112,15.345171H67.4205475z"/>
		</g>
	</g>
	<g>
		<g>
			<path d="M12.4540968,16.9043713l5.7692404-15.3451719h2.1512165l-5.8102121,15.3451719H12.4540968z"/>
		</g>
	</g>
	<path d="M115.8871155,11.3915358l1.9871368,0.512846c-0.4165497,1.6676235-1.1659927,2.9392738-2.2483368,3.8149509
		c-1.0823441,0.8756762-2.4053955,1.3135157-3.9691544,1.3135157c-1.6183929,0-2.9346161-0.3366642-3.9486694-1.0099945
		c-1.014061-0.6733294-1.7856979-1.6484356-2.3149185-2.9253187s-0.7938309-2.6479626-0.7938309-4.1132393
		c0-1.5978484,0.2987518-2.9916048,0.8962631-4.1812696c0.5975037-1.1896644,1.4476776-2.0932512,2.550499-2.7107604
		c1.102829-0.6175092,2.3166275-0.9262638,3.6413879-0.9262638c1.5023041,0,2.7656021,0.3907403,3.7899017,1.1722207
		s1.7378922,1.8804376,2.1407852,3.2968709l-1.9564133,0.4709816c-0.348259-1.1164007-0.8535843-1.9292798-1.5159607-2.4386377
		s-1.4954758-0.7640369-2.4992905-0.7640369c-1.1540375,0-2.1185913,0.282589-2.8936386,0.8477669
		c-0.7750549,0.5651782-1.3196411,1.3239815-1.6337585,2.2764108s-0.4711761,1.9345136-0.4711761,2.9462519
		c0,1.3047934,0.1860809,2.4438705,0.5582428,3.4172325s0.9508896,1.7007666,1.7361832,2.1822147
		s1.6354675,0.7221718,2.5505066,0.7221718c1.1130676,0,2.0554276-0.3279428,2.8270645-0.9838285
		C115.0915756,13.655736,115.6139679,12.682374,115.8871155,11.3915358z"/>
	<path d="M119.5267868,16.7711906V1.4276584h1.9871368v7.6089692l7.4569016-7.6089692h2.6938934l-6.2994308,6.2169566
		l6.5759964,9.1265755h-2.6222076l-5.3468323-7.7659616l-2.4583206,2.4491043v5.3168573H119.5267868z"/>
	<path d="M132.907547,16.7711906V1.4276584h10.8575592v1.8106626h-8.8704224v4.6993494h8.3070526v1.8001962h-8.3070526v5.2226629
		h9.2186737v1.8106613H132.907547z"/>
	<path d="M145.8404388,16.7711906V1.4276584h6.6579437c1.3384247,0,2.355896,0.1378057,3.0524139,0.4134172
		s1.2530518,0.7622924,1.6696014,1.460043s0.6248322,1.4687645,0.6248322,2.3130429
		c0,1.0884905-0.3448486,2.0060325-1.0345459,2.7526255s-1.7549591,1.2210636-3.195816,1.4234114
		c0.5258026,0.2581673,0.925293,0.512846,1.1984253,0.7640362c0.5804443,0.5442457,1.1301575,1.2245522,1.6491241,2.0409203
		l2.611969,4.1760359h-2.4992981l-1.9871368-3.1922073c-0.5804291-0.921031-1.0584412-1.6257591-1.434021-2.1141844
		c-0.3755646-0.4884253-0.7118835-0.8303232-1.0089264-1.0256929s-0.5992126-0.3314314-0.9065094-0.4081841
		c-0.2253418-0.0488424-0.5940857-0.0732641-1.1062317-0.0732641h-2.3046722v6.8135328H145.8404388z M147.8275909,8.1993265
		h4.2713165c0.9082184,0,1.6183929-0.0959406,2.1305389-0.2878218s0.9013824-0.4988914,1.1677094-0.9210305
		c0.2663116-0.4221392,0.3994751-0.8809099,0.3994751-1.3763127c0-0.7256608-0.257782-1.3222375-0.7733459-1.7897301
		s-1.3298798-0.7012393-2.4429474-0.7012393h-4.7527466V8.1993265z"/>
	<path d="M158.7938385,11.8415842l1.8744659-0.1674595c0.0887756,0.7675247,0.2947693,1.3972445,0.6191254,1.8891592
		c0.3243713,0.4919138,0.8285522,0.8896313,1.5114136,1.1931534c0.6828613,0.3035212,1.4510956,0.4552822,2.3046722,0.4552822
		c0.7579803,0,1.4271851-0.1151295,2.0076294-0.3453865c0.5804291-0.230258,1.0117798-0.54599,1.295166-0.947197
		c0.2833862-0.401206,0.4256592-0.8390446,0.4256592-1.3135147c0-0.4814482-0.1365814-0.9018431-0.409729-1.2611837
		c-0.2731476-0.3593416-0.7238312-0.6611195-1.352066-0.9053316c-0.4028931-0.1604824-1.2940369-0.4099283-2.6734314-0.7483377
		c-1.3793793-0.3384085-2.3456421-0.65763-2.8987579-0.9576626c-0.7170105-0.3837624-1.2519226-0.8599772-1.6035919-1.4286437
		c-0.3516846-0.5686665-0.526947-1.2053642-0.526947-1.9100919c0-0.7745032,0.2151031-1.4984193,0.6453094-2.1717484
		s1.0584412-1.1844316,1.8847046-1.5333067s1.7447205-0.5233129,2.7553711-0.5233129
		c1.1130676,0,2.0941162,0.1831595,2.9442902,0.5494785c0.8501587,0.3663189,1.5045776,0.9053311,1.9620972,1.6170368
		s0.7033539,1.517607,0.7374878,2.4177053L168.39151,5.8967505c-0.102417-0.9698734-0.4495544-1.7025113-1.0402222-2.1979141
		c-0.590683-0.4954028-1.4624786-0.7431042-2.6165161-0.7431042c-1.2018433,0-2.078186,0.2250245-2.6278992,0.6750736
		c-0.5496979,0.4500492-0.8239899,0.9925501-0.8239899,1.6275027c0,0.5512233,0.1946106,1.0047607,0.583847,1.3606138
		c0.3824158,0.3558526,1.3805237,0.720427,2.9955139,1.0937238c1.614975,0.3732963,2.7234955,0.6994948,3.3244171,0.9785953
		c0.8740692,0.4116726,1.5193634,0.9332409,1.9359131,1.5647049s0.6248322,1.3588696,0.6248322,2.1822147
		c0,0.8163681-0.2287598,1.585638-0.6862793,2.3078098s-1.1153564,1.2838602-1.9723511,1.6850672
		s-1.8209686,0.6018105-2.8930664,0.6018105c-1.358902,0-2.4981537-0.2023487-3.4166107-0.6070442
		c-0.918457-0.4046936-1.6388702-1.0134821-2.1612701-1.8263607
		C159.0954437,13.7865639,158.8211517,12.8672771,158.7938385,11.8415842z"/>
	<g>
	</g>
	<g>
		<g>
			<g>
				<polygon points="21.306427,3.9151564 20.3470154,6.4488697 21.879549,10.6038675 18.7738876,10.6038675 18.1476536,12.2575474 
					22.4940834,12.2575474 24.2456169,16.9045601 26.5093193,16.9045601 				"/>
			</g>
		</g>
	</g>
	<g>
		<g>
			<path d="M90.9778061,16.7712173l5.7692413-15.3451719h2.1512146l-5.8102112,15.3451719H90.9778061z"/>
			<polygon points="99.8560181,3.8467512 98.8956757,6.383184 100.4031677,10.4707031 97.3480453,10.4707031 96.7219315,12.124382 
				101.0177078,12.124382 102.7693558,16.7713966 105.0330582,16.7713966 			"/>
		</g>
	</g>
	<g>
		<path d="M-0.2283504,16.9043465V1.5608125h1.9871391v6.3006868h7.8051543V1.5608125h1.9871397v15.3435345H9.5639429V9.6721621
			H1.7587887v7.2321844H-0.2283504z"/>
		<path d="M37.3634033,11.5246897l1.9871407,0.512846c-0.4165497,1.6676235-1.1659927,2.9392738-2.2483368,3.8149509
			c-1.0823402,0.8756762-2.4053917,1.3135157-3.9691544,1.3135157c-1.6183929,0-2.9346161-0.3366642-3.9486713-1.0099945
			c-1.0140572-0.6733284-1.7856941-1.6484346-2.3149147-2.9253187c-0.5292225-1.2768831-0.7938328-2.6479626-0.7938328-4.1132383
			c0-1.5978489,0.2987537-2.9916058,0.8962612-4.1812701s1.4476757-2.0932515,2.5505047-2.7107608
			c1.1028271-0.6175091,2.3166218-0.9262637,3.6413803-0.9262637c1.5023041,0,2.7656059,0.3907403,3.7899055,1.1722208
			c1.0242958,0.7814806,1.7378922,1.8804374,2.1407814,3.2968712l-1.9564095,0.4709816
			c-0.348259-1.1164007-0.8535805-1.9292803-1.5159607-2.4386382s-1.4954758-0.7640367-2.4992905-0.7640367
			c-1.1540413,0-2.1185894,0.282589-2.8936405,0.8477669c-0.775053,0.5651779-1.3196392,1.3239813-1.6337566,2.2764111
			c-0.3141193,0.9524293-0.4711781,1.9345126-0.4711781,2.9462514c0,1.3047934,0.1860809,2.4438705,0.5582428,3.4172325
			s0.9508915,1.7007675,1.736187,2.1822147c0.7852955,0.4814482,1.6354618,0.7221718,2.5505009,0.7221718
			c1.1130714,0,2.0554276-0.3279428,2.8270645-0.9838276C36.5678673,13.7888899,37.0902596,12.8155279,37.3634033,11.5246897z"/>
		<path d="M41.0030785,16.9043465V1.5608125h1.9871368v7.6089692l7.4568939-7.6089692h2.6939049l-6.2994347,6.2169566
			l6.5759964,9.1265774H50.795372l-5.3468399-7.7659636l-2.4583168,2.4491043v5.3168592H41.0030785z"/>
		<path d="M53.1637764,11.9747381l1.8744659-0.1674595c0.0887718,0.7675257,0.2947731,1.3972454,0.619133,1.8891592
			s0.8285446,0.8896322,1.5114098,1.1931534s1.451088,0.4552822,2.3046722,0.4552822
			c0.7579803,0,1.4271889-0.1151285,2.0076218-0.3453865c0.5804367-0.230258,1.0117798-0.54599,1.2951698-0.947196
			c0.28339-0.401207,0.4256554-0.8390455,0.4256554-1.3135157c0-0.4814482-0.1365738-0.9018421-0.4097214-1.2611837
			s-0.7238388-0.6611185-1.3520737-0.9053316c-0.4028893-0.1604824-1.2940292-0.4099283-2.67342-0.7483377
			c-1.3793869-0.3384085-2.3456421-0.657629-2.8987656-0.9576616c-0.7170067-0.3837633-1.2519188-0.8599777-1.6035957-1.4286447
			c-0.3516731-0.5686665-0.5269432-1.2053638-0.5269432-1.9100919c0-0.7745032,0.2151031-1.4984193,0.6453094-2.1717484
			c0.4302025-0.6733291,1.0584412-1.1844313,1.8847084-1.5333066s1.7447205-0.5233129,2.7553635-0.5233129
			c1.1130714,0,2.09412,0.1831595,2.9442863,0.5494785c0.8501701,0.3663191,1.5045815,0.9053313,1.962101,1.6170367
			s0.7033539,1.5176075,0.7374954,2.4177053l-1.9051933,0.1465278c-0.1024323-0.969873-0.4495544-1.7025113-1.0402336-2.1979141
			s-1.462471-0.7431042-2.6165123-0.7431042c-1.2018433,0-2.0781898,0.2250247-2.6278954,0.6750736
			s-0.8239899,0.9925501-0.8239899,1.6275032c0,0.5512228,0.1946144,1.0047607,0.583847,1.3606133
			c0.3824043,0.3558526,1.3805275,0.7204275,2.9955063,1.0937238c1.614975,0.3732963,2.7234955,0.6994948,3.3244171,0.9785953
			c0.8740692,0.4116726,1.5193787,0.9332409,1.9359207,1.5647049c0.4165497,0.631465,0.6248245,1.3588696,0.6248245,2.1822147
			c0,0.8163681-0.2287598,1.585638-0.6862793,2.3078098s-1.1153488,1.2838602-1.9723434,1.6850672
			c-0.8569984,0.401207-1.8209763,0.6018105-2.893074,0.6018105c-1.358902,0-2.4981499-0.2023487-3.4166031-0.6070423
			c-0.918457-0.4046955-1.6388779-1.013483-2.1612701-1.8263626S53.1910934,13.000432,53.1637764,11.9747381z"/>
	</g>
	<path d="M78.2953568,16.7711906V1.4276584h1.9871445v6.3006868h7.8051529V1.4276584h1.9871368v15.3435326h-1.9871368V9.5390081
		h-7.8051529v7.2321825H78.2953568z"/>
</g>
<g>
</g>
<g>
</g>
<g>
</g>
<g>
</g>
<g>
</g>
<g>
</g>
</svg>
