<?xml version="1.0" encoding="utf-8"?>
<!-- Generator: Adobe Illustrator 19.1.0, SVG Export Plug-In . SVG Version: 6.00 Build 0)  -->
<svg version="1.1" id="Layer_1" xmlns="http://www.w3.org/2000/svg" xmlns:xlink="http://www.w3.org/1999/xlink" x="0px" y="0px"
	 viewBox="0 0 92.5615311 36.7200012" style="enable-background:new 0 0 92.5615311 36.7200012;" xml:space="preserve">
<g>
	<g>
		<g>
			<path d="M67.6489029,15.598794l5.7692413-15.3451719h2.1512146L69.7591476,15.598794H67.6489029z"/>
		</g>
	</g>
	<g>
		<g>
			<path d="M12.6824503,15.6052151l5.7692404-15.3451719h2.1512165L14.792695,15.6052151H12.6824503z"/>
		</g>
	</g>
	<path d="M41.2314301,15.4720354V0.1285024h1.9871407v7.6089692l7.4568939-7.6089692h2.6939049L47.0699348,6.345459
		l6.5759926,9.1265764h-2.6222038l-5.3468361-7.7659626l-2.4583168,2.4491043v5.3168583H41.2314301z"/>
	<path d="M37.5917549,30.8847008l1.9871368,0.512846c-0.4165459,1.6676235-1.1659927,2.9392757-2.248333,3.8149509
		c-1.0823441,0.8756752-2.4053955,1.3135147-3.9691582,1.3135147c-1.618391,0-2.9346142-0.3366623-3.9486694-1.0099945
		c-1.0140553-0.6733284-1.7856941-1.6484337-2.3149147-2.9253159c-0.5292206-1.276886-0.7938309-2.6479645-0.7938309-4.1132412
		c0-1.5978489,0.2987537-2.9916058,0.8962612-4.1812687c0.5975075-1.1896648,1.4476738-2.0932522,2.5505028-2.710762
		c1.102829-0.6175079,2.3166218-0.9262638,3.6413822-0.9262638c1.5023041,0,2.7656059,0.3907413,3.7899017,1.1722221
		c1.0242996,0.7814808,1.737896,1.8804359,2.1407852,3.2968712l-1.9564095,0.4709816
		c-0.3482628-1.1164017-0.8535843-1.9292812-1.5159607-2.4386387c-0.6623802-0.5093575-1.4954758-0.7640362-2.4992905-0.7640362
		c-1.1540413,0-2.1185894,0.282589-2.8936424,0.8477669s-1.3196373,1.3239803-1.6337566,2.2764111
		c-0.3141174,0.9524288-0.4711761,1.9345131-0.4711761,2.9462509c0,1.3047924,0.1860809,2.4438705,0.5582428,3.4172325
		c0.37216,0.973362,0.9508896,1.7007675,1.7361851,2.1822128c0.7852955,0.4814491,1.6354637,0.7221718,2.5505028,0.7221718
		c1.1130714,0,2.0554276-0.3279419,2.8270645-0.9838257C36.7962151,33.1488991,37.3186073,32.1755371,37.5917549,30.8847008z"/>
	<path d="M41.2314301,36.2643547V20.9208241h1.9871368v7.6089687l7.4568939-7.6089687h2.6939049l-6.2994347,6.2169552
		l6.5759964,9.1265755h-2.6222038l-5.3468399-7.7659607l-2.4583168,2.4491043v5.3168564H41.2314301z"/>
	<path d="M54.6121826,36.2643547V20.9208241h10.8575592v1.8106613h-8.8704224v4.6993504h8.3070602v1.8001957h-8.3070602v5.222662
		h9.218689v1.8106613H54.6121826z"/>
	<path d="M67.5450897,36.2643547V20.9208241h6.6579361c1.3384171,0,2.3558884,0.1378059,3.0524139,0.4134159
		c0.6965179,0.2756119,1.2530594,0.7622929,1.6696014,1.460043c0.4165497,0.6977501,0.6248245,1.4687653,0.6248245,2.3130436
		c0,1.0884914-0.3448486,2.0060329-1.0345383,2.7526245c-0.6896973,0.7465935-1.7549667,1.2210636-3.195816,1.4234123
		c0.5258102,0.2581673,0.9252853,0.512846,1.1984329,0.7640362c0.5804367,0.5442448,1.1301422,1.2245522,1.6491165,2.0409222
		l2.6119614,4.176033h-2.4992828l-1.9871445-3.1922073c-0.5804367-0.9210281-1.0584412-1.6257572-1.4340134-2.1141834
		c-0.3755798-0.4884243-0.7118912-0.8303223-1.008934-1.0256939c-0.2970505-0.1953697-0.5992203-0.3314304-0.9065094-0.4081841
		c-0.2253418-0.0488415-0.5940933-0.0732632-1.1062393-0.0732632h-2.3046722v6.8135319H67.5450897z M69.5322266,27.6924915
		h4.2713242c0.9082108,0,1.6183929-0.0959396,2.1305389-0.2878227c0.5121536-0.1918812,0.9013824-0.4988899,1.1677017-0.92103
		c0.2663193-0.4221382,0.3994751-0.880909,0.3994751-1.3763123c0-0.7256603-0.257782-1.322237-0.7733459-1.7897301
		s-1.3298798-0.7012386-2.4429474-0.7012386h-4.7527466V27.6924915z"/>
	<path d="M80.4984818,31.3347492l1.8744659-0.1674595c0.088768,0.7675247,0.2947693,1.3972435,0.619133,1.8891602
		c0.3243561,0.4919128,0.828537,0.8896294,1.5114059,1.1931534c0.682869,0.3035202,1.451088,0.4552803,2.3046722,0.4552803
		c0.7579803,0,1.4271927-0.1151276,2.0076218-0.3453865c0.5804367-0.2302589,1.0117798-0.54599,1.2951736-0.947197
		c0.2833862-0.401207,0.4256516-0.8390427,0.4256516-1.3135147c0-0.4814472-0.1365738-0.9018421-0.4097214-1.2611828
		c-0.2731476-0.3593426-0.7238388-0.6611195-1.3520737-0.9053326c-0.4028931-0.1604824-1.2940292-0.4099274-2.6734161-0.7483368
		s-2.3456421-0.657629-2.8987656-0.9576626c-0.7170105-0.3837624-1.2519226-0.8599777-1.6035995-1.4286442
		s-0.5269394-1.2053642-0.5269394-1.9100914c0-0.7745037,0.2151031-1.4984188,0.6453018-2.1717491
		c0.4302063-0.6733284,1.0584412-1.1844311,1.8847122-1.5333061s1.7447205-0.5233135,2.7553635-0.5233135
		c1.1130676,0,2.0941238,0.1831608,2.9442902,0.5494785c0.8501663,0.3663197,1.5045776,0.9053326,1.9620972,1.6170368
		c0.4575195,0.7117062,0.7033539,1.5176086,0.7374954,2.4177055l-1.9051971,0.1465282
		c-0.1024246-0.9698734-0.4495468-1.7025108-1.0402298-2.1979141c-0.5906754-0.4954033-1.462471-0.7431049-2.6165085-0.7431049
		c-1.2018509,0-2.0781937,0.2250252-2.6278992,0.6750736c-0.5497055,0.4500504-0.8239899,0.9925499-0.8239899,1.6275043
		c0,0.5512218,0.1946182,1.0047607,0.583847,1.3606129c0.3824081,0.3558521,1.3805313,0.7204266,2.9955063,1.0937233
		s2.7234955,0.6994953,3.3244171,0.9785957c0.8740692,0.4116726,1.5193787,0.9332409,1.9359283,1.5647049
		c0.4165421,0.631464,0.6248169,1.3588696,0.6248169,2.1822147c0,0.81637-0.2287598,1.585638-0.6862793,2.3078098
		s-1.1153488,1.2838593-1.9723434,1.6850662s-1.8209763,0.6018105-2.893074,0.6018105
		c-1.358902,0-2.4981461-0.2023468-3.4166031-0.6070442c-0.918457-0.4046936-1.6388779-1.0134811-2.1612701-1.8263588
		C80.8000793,33.2797279,80.525795,32.3604431,80.4984818,31.3347492z"/>
	<g>
	</g>
	<g>
		<g>
			<g>
				<polygon points="21.5347805,2.6160004 20.5753689,5.1497135 22.1079025,9.3047113 19.0022411,9.3047113 18.3760071,10.9583912 
					22.7224369,10.9583912 24.4739704,15.6054049 26.7376728,15.6054049 				"/>
			</g>
		</g>
	</g>
	<g>
		<g>
			<path d="M12.6824474,36.2643814l5.7692394-15.345171h2.1512165l-5.8102112,15.345171H12.6824474z"/>
			<polygon points="21.5606613,23.3399162 20.6003132,25.8763485 22.107811,29.9638672 19.0526886,29.9638672 18.4265728,31.617548 
				22.7223454,31.617548 24.4739971,36.2645607 26.7377014,36.2645607 			"/>
		</g>
	</g>
	<g>
		<path d="M0.0000032,15.6051893V0.2616565h1.9871391v6.3006868h7.8051538V0.2616565h1.9871397v15.3435326H9.7922964V8.3730059
			H1.9871423v7.2321835H0.0000032z"/>
		<path d="M37.5917587,10.2255335l1.9871368,0.5128469c-0.4165459,1.6676235-1.1659927,2.9392738-2.248333,3.81495
			c-1.0823441,0.8756771-2.4053955,1.3135157-3.9691582,1.3135157c-1.618391,0-2.9346142-0.3366652-3.9486694-1.0099936
			c-1.0140572-0.6733294-1.7856941-1.6484356-2.3149147-2.9253197s-0.7938328-2.6479626-0.7938328-4.1132388
			c0-1.5978484,0.2987537-2.9916048,0.8962612-4.1812696s1.4476757-2.0932515,2.5505047-2.7107606
			C30.8535805,0.3087546,32.0673752,0,33.3921356,0c1.5023041,0,2.7656059,0.3907402,3.7899017,1.1722208
			c1.0242996,0.7814806,1.7378922,1.8804375,2.1407852,3.2968712l-1.9564095,0.4709816
			c-0.3482628-1.1164007-0.8535843-1.92928-1.5159645-2.438638c-0.6623764-0.5093578-1.4954758-0.7640368-2.4992867-0.7640368
			c-1.1540413,0-2.1185913,0.2825888-2.8936424,0.8477668c-0.775053,0.5651779-1.3196392,1.3239815-1.6337566,2.2764111
			c-0.3141193,0.9524293-0.4711781,1.9345131-0.4711781,2.9462514c0,1.3047934,0.1860809,2.4438715,0.5582428,3.4172325
			s0.9508915,1.7007675,1.736187,2.1822147c0.7852955,0.4814482,1.6354637,0.7221718,2.5505028,0.7221718
			c1.1130714,0,2.0554237-0.3279428,2.8270645-0.9838276C36.7962189,12.4897337,37.3186111,11.5163717,37.5917587,10.2255335z"/>
		<path d="M41.2314301,15.6051893V0.2616565h1.9871407v7.6089692l7.4568939-7.6089692h2.6939049l-6.2994347,6.2169571
			l6.5759926,9.1265755h-2.6222038l-5.3468361-7.7659626l-2.4583168,2.4491043v5.3168583H41.2314301z"/>
		<path d="M53.3921318,10.6755829l1.8744659-0.1674604c0.0887718,0.7675257,0.2947693,1.3972454,0.6191292,1.8891592
			c0.3243637,0.4919138,0.8285446,0.8896322,1.5114098,1.1931534s1.4510918,0.4552822,2.3046722,0.4552822
			c0.7579803,0,1.4271889-0.1151285,2.0076256-0.3453865s1.0117798-0.54599,1.2951698-0.947196
			c0.2833862-0.401207,0.4256516-0.8390455,0.4256516-1.3135157c0-0.4814482-0.1365738-0.9018421-0.4097176-1.2611837
			c-0.2731476-0.3593416-0.7238388-0.6611185-1.3520775-0.9053316c-0.4028893-0.1604824-1.2940292-0.4099283-2.6734161-0.7483368
			c-1.3793907-0.3384094-2.3456459-0.65763-2.8987656-0.9576631c-0.7170105-0.3837628-1.2519188-0.8599772-1.6035957-1.4286442
			s-0.526947-1.2053638-0.526947-1.9100919c0-0.7745028,0.2151031-1.498419,0.6453094-2.1717482
			s1.0584412-1.1844316,1.8847084-1.5333067S58.2404785,0,59.2511177,0c1.1130714,0,2.09412,0.1831595,2.9442902,0.5494785
			c0.8501663,0.366319,1.5045815,0.9053313,1.962101,1.6170368s0.7033539,1.5176072,0.7374954,2.4177055l-1.9051971,0.1465273
			c-0.1024284-0.969873-0.4495544-1.7025111-1.0402298-2.1979139c-0.5906792-0.4954028-1.462471-0.7431042-2.6165161-0.7431042
			c-1.2018433,0-2.078186,0.2250245-2.6278954,0.6750736c-0.5497055,0.4500489-0.8239899,0.9925499-0.8239899,1.6275029
			c0,0.5512228,0.1946182,1.0047607,0.5838509,1.3606133c0.3824043,0.3558531,1.3805275,0.7204275,2.9955025,1.0937238
			c1.6149788,0.3732967,2.7234955,0.6994948,3.3244171,0.9785953c0.8740692,0.4116726,1.5193748,0.9332409,1.9359245,1.5647058
			c0.4165497,0.631464,0.6248245,1.3588686,0.6248245,2.1822138c0,0.8163681-0.2287598,1.585638-0.6862793,2.3078098
			s-1.1153488,1.2838612-1.9723473,1.6850681c-0.8569946,0.401206-1.8209724,0.6018095-2.893074,0.6018095
			c-1.358902,0-2.4981499-0.2023478-3.4166031-0.6070433c-0.9184532-0.4046946-1.6388779-1.0134821-2.1612701-1.8263617
			S53.419445,11.7012758,53.3921318,10.6755829z"/>
	</g>
	<path d="M0,36.2643547V20.9208241h1.9871391v6.3006859h7.8051543v-6.3006859h1.9871387v15.3435307H9.7922935v-7.2321815H1.9871391
		v7.2321815H0z"/>
</g>
<g>
</g>
<g>
</g>
<g>
</g>
<g>
</g>
<g>
</g>
<g>
</g>
</svg>
