<svg xmlns="http://www.w3.org/2000/svg" viewBox="0 0 170.6399994 18"><path d="M67.42 16.898l5.77-15.345h2.15l-5.81 15.345h-2.11zM12.454 16.904l5.77-15.345h2.15l-5.81 15.344h-2.11zM115.887 11.392l1.987.512c-.416 1.668-1.166 2.94-2.248 3.815-1.082.875-2.405 1.313-3.97 1.313-1.618 0-2.934-.337-3.948-1.01-1.014-.673-1.786-1.65-2.315-2.925s-.794-2.648-.794-4.114c0-1.598.298-2.99.896-4.18.597-1.19 1.447-2.094 2.55-2.712 1.103-.617 2.317-.926 3.64-.926 1.504 0 2.767.39 3.79 1.172s1.74 1.88 2.142 3.297l-1.956.47c-.348-1.115-.854-1.928-1.516-2.438s-1.496-.764-2.5-.764c-1.154 0-2.118.283-2.893.848-.775.566-1.32 1.325-1.634 2.278s-.472 1.934-.472 2.946c0 1.305.186 2.444.558 3.417s.95 1.702 1.736 2.183 1.636.722 2.55.722c1.114 0 2.056-.327 2.828-.983.772-.656 1.294-1.63 1.567-2.92zM119.527 16.77V1.43h1.987v7.61l7.457-7.61h2.695l-6.3 6.217 6.576 9.126h-2.62l-5.348-7.765-2.458 2.45v5.316h-1.987zM132.908 16.77V1.43h10.857v1.81h-8.87v4.7h8.307v1.8h-8.307v5.223h9.218v1.81h-11.205zM145.84 16.77V1.43h6.658c1.34 0 2.356.137 3.053.413s1.254.763 1.67 1.46.625 1.47.625 2.314c0 1.09-.345 2.006-1.034 2.753s-1.754 1.22-3.195 1.423c.526.258.925.513 1.198.764.58.544 1.13 1.225 1.65 2.04l2.61 4.177h-2.498l-1.987-3.19c-.58-.922-1.058-1.627-1.434-2.115-.376-.49-.712-.83-1.01-1.026s-.598-.332-.906-.41c-.225-.048-.594-.072-1.106-.072h-2.304v6.813h-1.988zm1.988-8.57h4.27c.91 0 1.62-.097 2.13-.288s.903-.5 1.17-.922c.265-.422.4-.88.4-1.376 0-.725-.26-1.322-.775-1.79s-1.33-.7-2.443-.7h-4.752v5.075zM158.794 11.842l1.874-.168c.09.768.295 1.397.62 1.89.324.49.828.89 1.51 1.192.684.304 1.452.456 2.306.456.757 0 1.427-.115 2.007-.346.582-.23 1.013-.546 1.296-.947.284-.402.426-.84.426-1.314 0-.482-.137-.902-.41-1.262-.273-.36-.724-.66-1.352-.905-.403-.16-1.294-.41-2.673-.75-1.38-.338-2.346-.657-2.9-.957-.716-.384-1.25-.86-1.603-1.43-.35-.567-.527-1.204-.527-1.91 0-.773.216-1.497.646-2.17s1.058-1.185 1.884-1.534 1.745-.524 2.756-.524c1.113 0 2.094.183 2.944.55.85.366 1.505.905 1.962 1.617s.703 1.517.737 2.417l-1.905.147c-.103-.97-.45-1.703-1.04-2.198-.59-.497-1.463-.744-2.617-.744-1.202 0-2.078.225-2.628.675-.55.45-.824.993-.824 1.628 0 .552.194 1.005.584 1.36.382.357 1.38.72 2.995 1.095 1.615.373 2.724.7 3.325.978.874.413 1.52.934 1.936 1.566s.624 1.36.624 2.182c0 .817-.228 1.586-.686 2.308s-1.114 1.284-1.97 1.685-1.822.603-2.894.603c-1.36 0-2.498-.203-3.417-.607-.92-.405-1.64-1.014-2.162-1.827-.523-.813-.797-1.733-.824-2.758zM21.306 3.915l-.96 2.534 1.534 4.154h-3.106l-.626 1.654h4.346l1.752 4.647h2.263M90.978 16.77l5.77-15.344h2.15l-5.81 15.345h-2.11zM99.856 3.847l-.96 2.536 1.507 4.088h-3.055l-.626 1.654h4.296l1.75 4.647h2.265M-.228 16.904V1.56H1.76v6.3h7.804v-6.3h1.987v15.344H9.565V9.672H1.76v7.232H-.23zM37.363 11.525l1.988.513c-.416 1.667-1.165 2.94-2.248 3.814-1.082.876-2.405 1.314-3.97 1.314-1.617 0-2.934-.337-3.948-1.01-1.014-.673-1.785-1.648-2.315-2.925-.53-1.276-.794-2.647-.794-4.113 0-1.597.298-2.99.896-4.18s1.448-2.094 2.55-2.712c1.103-.617 2.317-.926 3.642-.926 1.502 0 2.765.39 3.79 1.17 1.024.783 1.738 1.882 2.14 3.298l-1.956.47c-.348-1.115-.854-1.928-1.516-2.437s-1.495-.763-2.5-.763c-1.153 0-2.118.282-2.893.847-.776.565-1.32 1.324-1.635 2.277-.314.953-.47 1.935-.47 2.947 0 1.305.185 2.444.557 3.417s.95 1.7 1.737 2.182c.784.482 1.634.723 2.55.723 1.112 0 2.055-.33 2.826-.985.772-.656 1.294-1.63 1.567-2.92zM41.003 16.904V1.56h1.987v7.61l7.457-7.61h2.694L46.843 7.78l6.576 9.126h-2.623L45.45 9.138l-2.46 2.45v5.316h-1.987z"/><path d="M53.164 11.975l1.874-.168c.09.768.295 1.398.62 1.89s.828.89 1.51 1.193 1.452.455 2.305.455c.758 0 1.428-.115 2.008-.346.582-.23 1.013-.547 1.296-.948.284-.4.426-.84.426-1.313 0-.483-.137-.903-.41-1.262s-.724-.662-1.352-.906c-.403-.16-1.294-.41-2.673-.748-1.38-.338-2.346-.658-2.9-.958-.716-.384-1.25-.86-1.603-1.428-.35-.57-.527-1.206-.527-1.91 0-.775.215-1.5.646-2.172.43-.674 1.058-1.185 1.884-1.534s1.745-.523 2.756-.523c1.113 0 2.094.182 2.944.55.85.365 1.505.904 1.962 1.616s.703 1.517.737 2.417l-1.906.147c-.1-.97-.448-1.703-1.04-2.198s-1.46-.743-2.615-.743c-1.202 0-2.078.224-2.628.674s-.824.993-.824 1.627c0 .553.194 1.006.584 1.362.382.356 1.38.72 2.995 1.094 1.615.373 2.724.7 3.325.978.874.412 1.52.934 1.936 1.565.416.63.624 1.358.624 2.18 0 .818-.228 1.587-.686 2.31s-1.114 1.283-1.97 1.684c-.858.4-1.822.602-2.894.602-1.36 0-2.5-.202-3.417-.607-.92-.406-1.64-1.015-2.162-1.827s-.797-1.733-.824-2.758zM78.295 16.77V1.43h1.988v6.3h7.805v-6.3h1.987V16.77h-1.987V9.54h-7.805v7.23h-1.988z"/></svg>
