<svg xmlns="http://www.w3.org/2000/svg" viewBox="0 0 362 32"><path d="M154.586.524l-11.988 30.78-.042.107h6.75L161.275.63l.042-.106M18.362 12.62h-12V.523H0V31.41h6.362V17.976h12V31.41h6.363V.525h-6.363M76.902 19.934l-.02.083c-.51 2.223-1.362 3.873-2.532 4.905-1.168 1.03-2.582 1.553-4.203 1.553-2.202 0-4.015-.823-5.39-2.446-1.38-1.627-2.077-4.403-2.077-8.25 0-3.626.71-6.28 2.108-7.894 1.396-1.61 3.24-2.425 5.485-2.425 1.623 0 3.02.46 4.153 1.367 1.134.906 1.89 2.16 2.247 3.73l.018.076 6.22-1.486.08-.018-.023-.08c-.7-2.462-1.764-4.378-3.165-5.696C77.45 1.13 74.35 0 70.587 0c-4.307 0-7.83 1.437-10.475 4.27-2.643 2.83-3.983 6.86-3.983 11.97 0 4.833 1.332 8.7 3.96 11.49 2.632 2.79 6.036 4.205 10.12 4.205 3.3 0 6.063-.827 8.212-2.458 2.15-1.63 3.706-4.158 4.63-7.514l.02-.073-6.09-1.93-.08-.026zM113.203.524h-8.562L92.22 14.047V.524h-6.362V31.41h6.362v-9.33l4.937-5.04 8.395 14.333.022.038h8.22l-12.245-18.828"/><path d="M136.49 17.446c-.82-1.325-1.972-2.386-3.424-3.152-1.447-.76-3.707-1.507-6.716-2.218-2.994-.707-4.9-1.392-5.67-2.038-.593-.498-.894-1.105-.894-1.805 0-.766.32-1.386.952-1.844 1.003-.728 2.413-1.097 4.19-1.097 1.72 0 3.026.343 3.88 1.02.854.676 1.42 1.806 1.68 3.36l.012.067 6.274-.276.077-.003v-.077c-.1-2.832-1.142-5.13-3.1-6.827C131.797.86 128.85 0 124.99 0c-2.36 0-4.406.362-6.078 1.076-1.677.714-2.978 1.772-3.87 3.14-.893 1.37-1.345 2.862-1.345 4.436 0 2.444.96 4.544 2.856 6.242 1.345 1.206 3.712 2.234 7.034 3.057 2.577.643 4.246 1.093 4.96 1.34 1.044.372 1.785.812 2.2 1.308.412.495.62 1.1.62 1.805 0 1.102-.5 2.08-1.49 2.906-.994.828-2.497 1.248-4.468 1.248-1.86 0-3.356-.472-4.446-1.406-1.092-.933-1.827-2.42-2.185-4.42l-.014-.07-6.188.6.01.08c.404 3.443 1.67 6.102 3.757 7.902 2.087 1.8 5.115 2.712 9.002 2.712 2.666 0 4.925-.38 6.717-1.127 1.794-.75 3.202-1.915 4.186-3.46.982-1.543 1.48-3.22 1.48-4.988 0-1.948-.417-3.608-1.24-4.936zM44.77.524h-6.42l-11.99 30.78-.04.107h6.42l.04-.106M48.073 8.156L41.745 24.43h6.037l2.664 6.93.02.05h6.92"/><g><path d="M185.76 12.663h-12V.568h-6.362v30.887h6.362V18.02h12v13.435h6.363V.568h-6.362M244.3 19.977l-.02.084c-.51 2.223-1.362 3.873-2.532 4.906-1.166 1.03-2.58 1.552-4.203 1.552-2.202 0-4.015-.822-5.39-2.445-1.378-1.626-2.077-4.402-2.077-8.25 0-3.625.71-6.28 2.108-7.893 1.396-1.61 3.24-2.426 5.485-2.426 1.624 0 3.022.46 4.155 1.366 1.133.906 1.89 2.16 2.247 3.73l.018.077 6.218-1.486.08-.018-.022-.08c-.7-2.46-1.765-4.376-3.166-5.694-2.352-2.226-5.452-3.354-9.214-3.354-4.307 0-7.832 1.436-10.476 4.27-2.643 2.83-3.983 6.858-3.983 11.97 0 4.833 1.333 8.698 3.962 11.488 2.63 2.79 6.034 4.207 10.118 4.207 3.3 0 6.064-.83 8.212-2.46 2.15-1.63 3.707-4.16 4.63-7.514l.02-.073-6.09-1.93-.08-.026zM280.602.568h-8.563L259.62 14.09V.57h-6.364v30.887h6.363v-9.333l4.935-5.04 8.395 14.334.023.04h8.22l-12.246-18.83M289.334 17.914h15.428V12.58h-15.428V5.923h16.58V.568h-22.942v30.887h23.53V26.12h-17.168M330.39 20.34c-.833-.894-1.892-1.728-3.15-2.48 2.595-.413 4.582-1.365 5.907-2.833 1.362-1.51 2.053-3.45 2.053-5.765 0-1.824-.456-3.467-1.354-4.884-.898-1.42-2.114-2.42-3.612-2.977-1.49-.552-3.908-.832-7.186-.832H309.91v30.887h6.362v-12.83h1.18c1.408 0 2.45.116 3.098.342.64.226 1.257.65 1.833 1.26.58.615 1.678 2.13 3.262 4.506l4.486 6.687.024.035h7.605l-3.83-6.115c-1.474-2.38-2.665-4.062-3.54-5zM316.27 5.923h4.763c2.498 0 4.018.034 4.515.103.983.164 1.753.56 2.29 1.18.538.618.81 1.444.81 2.453 0 .902-.207 1.663-.614 2.26-.408.6-.98 1.026-1.7 1.27-.73.25-2.598.374-5.552.374h-4.512v-7.64z"/><path d="M360.477 17.49c-.82-1.326-1.973-2.386-3.425-3.152-1.447-.76-3.707-1.508-6.716-2.218-2.994-.707-4.9-1.393-5.67-2.038-.593-.498-.894-1.106-.894-1.806 0-.765.32-1.386.952-1.844 1.003-.727 2.412-1.095 4.19-1.095 1.72 0 3.026.343 3.88 1.02.854.676 1.42 1.805 1.68 3.358l.012.068 6.273-.275.077-.003-.002-.078c-.1-2.833-1.14-5.13-3.098-6.828-1.955-1.696-4.903-2.556-8.76-2.556-2.362 0-4.407.362-6.08 1.075-1.676.714-2.978 1.77-3.87 3.14-.892 1.37-1.344 2.862-1.344 4.436 0 2.444.96 4.544 2.856 6.242 1.344 1.205 3.71 2.234 7.033 3.057 2.577.64 4.245 1.092 4.96 1.34 1.044.37 1.784.81 2.2 1.307.412.494.62 1.1.62 1.805 0 1.1-.5 2.08-1.49 2.906-.995.83-2.498 1.25-4.468 1.25-1.86 0-3.355-.474-4.445-1.407-1.092-.933-1.827-2.42-2.185-4.42l-.013-.07-6.19.6.01.08c.405 3.443 1.67 6.1 3.758 7.9 2.087 1.8 5.116 2.714 9.003 2.714 2.665 0 4.925-.38 6.717-1.128 1.794-.75 3.203-1.914 4.186-3.458.98-1.544 1.48-3.222 1.48-4.988 0-1.948-.417-3.61-1.24-4.936zM212.168.568h-6.42l-11.99 30.78-.04.107h6.42l.04-.107M215.472 8.2l-6.33 16.275h6.038l2.664 6.93.02.05h6.92"/></g></svg>
