<!-- Generator: Adobe Illustrator 19.1.0, SVG Export Plug-In . SVG Version: 6.00 Build 0)  -->
<svg version="1.1" id="Layer_1" xmlns="http://www.w3.org/2000/svg" xmlns:xlink="http://www.w3.org/1999/xlink" x="0px" y="0px"
	 viewBox="-172.5963593 252.6206207 239.0615997 109.0296021"
	 style="enable-background:new -172.5963593 252.6206207 239.0615997 109.0296021;" xml:space="preserve">
<g id="Logotype">
	<path d="M62.0998459,284.6639404h-3.809845h-9.7388916v2.4487915h4.4537659c1.6680603,0,3.0202942,1.3522644,3.0202942,3.0203247
		c0,0.3821716-0.0784607,0.7443237-0.2079468,1.0808105h0.0077515l-9.5868835,25.5325012l-11.8352051-25.4416199h0.0010681
		c-0.1518555-0.360321-0.2361145-0.756073-0.2361145-1.1716919c0-1.6680603,1.3522949-3.0203247,3.0203552-3.0203247h1.7342224
		v-2.4487915h-7.3359833h-17.880127H9.7639542v2.4487915h3.1534729v0.0059204
		c1.1860809,0.0232849,2.1986084,0.7294312,2.6716461,1.7422485h0.0104218l22.9270172,48.4327698
		c-2.3647156,6.9186707-6.7031097,15.1553345-10.9425049,16.9093933c0.10495-0.5466614,0.1154327-0.8230286,0.1154327-1.4003296
		c0-4.9159851-3.9851685-8.9012146-8.9011536-8.9012146s-8.9012146,3.9852295-8.9012146,8.9012146
		s3.9852295,8.9012146,8.9012146,8.9012146c0.1665955,0,0.3291626-0.0158997,0.4934845-0.0249329l-0.0096283,0.0155945
		c8.7757263,0,16.4203033-7.8079529,20.4388275-19.3600159l0.003418,0.0075684l20.6766968-53.2991638h0.0082092
		c0.4380188-1.1277161,1.5270386-1.9302673,2.8095703-1.9302673h3.2467651v-2.4487915H62.0998459z"/>
	<circle cx="-163.7174072" cy="328.4924316" r="8.8792915"/>
	<path d="M-44.9561386,333.6010437c-1.6681366,0-3.0203552-1.3522949-3.0203552-3.0203247v-74.583252v-3.3233643h-15.4701691
		h-7.4789734v3.3233643h4.4586334c1.6680603,0,3.02034,1.3522034,3.02034,3.0203552v71.5628967
		c0,1.6680298-1.3522797,3.0203247-3.02034,3.0203247h-5.1002045h-0.3926849h-4.8473663
		c-1.6681213,0-3.02034-1.3522949-3.02034-3.0203247v-74.583252v-3.3233643h-15.4701691h-7.478981v3.3233643h4.4586334
		c1.6680527,0,3.0203476,1.3522034,3.0203476,3.0203552v71.5628967c0,1.6680298-1.3522949,3.0203247-3.0203476,3.0203247h-0.3873291
		h-4.1719437h-2.6807938v-0.0117798c-1.260498-0.0489807-2.3141937-0.8659668-2.7181091-1.9997253h-0.0075226
		l-27.6979218-73.2015686h-8.6470337l-4.8127289,17.5830688l11.5236206,29.6072998h-19.6309204l-1.1291199,4.1177673h22.3611145
		l7.6630707,19.7085571c0,0,0.0002747,0.0007935,0.0004578,0.0011902l0.044693,0.1148987h-0.0090027
		c0.1245728,0.3309326,0.2014465,0.6854858,0.2014465,1.059967c0,1.6680298-1.3522186,3.0203247-3.02034,3.0203247
		c-0.0025177,0-0.0047913-0.0007324-0.007309-0.0007324v0.0007324h-4.541687v2.448822h9.9155273h19.4737778h3.7187805h4.1719437
		h3.4076767h15.4701691h7.8677063h0.3926849h8.1205444h15.4701691h7.5407257v-2.448822H-44.9561386z"/>
	<path d="M7.9733963,323.535553c-3.1727448,4.7838745-8.0339661,7.8461609-13.4868622,7.8461609
		c-9.5523376,0-17.2974243-9.3920593-17.3156281-20.9859314h-0.0008698v-0.6996765h33.1170959v-4.4311218
		c0-12.493988-10.2566986-22.6222534-23.4994049-22.6222534l0,0c-14.1010132,0-25.0878601,12.2340088-25.0878601,27.3254395
		v1.1272583c0,14.4689026,10.3492279,26.1982422,24.932724,26.1982422l0,0l0,0
		c11.3133392,0,19.1849365-4.9520264,23.6565857-12.3875427L7.9733963,323.535553z M-22.8299637,305.0681763
		c0-10.1741028,3.9503784-18.4219055,8.8234406-18.4219055c4.8730469,0,8.8234863,8.2478027,8.8234863,18.4219055v0.5101624
		h-17.6469269V305.0681763z"/>
</g>
</svg>
