<svg width="433" height="105" viewBox="0 0 433 105" xmlns="http://www.w3.org/2000/svg"><title>Alley Interactive logo</title><g fill="none" fill-rule="evenodd"><path fill="#1A1918" d="M.06 105h432.065V.5H.06"/><path d="M58.296 61.072V57.61c-7.608 1.127-10.922 2.56-10.922 5.797 0 2.486 1.43 3.768 4.218 3.768 5.348 0 6.704-2.712 6.704-6.103m-19.887 2.94c0-7.232 5.95-11.15 19.886-12.882v-.604c0-2.56-1.054-3.54-5.273-3.54-3.465 0-4.972 1.13-5.874 2.787l-8.44-2.862c1.808-3.765 7.007-7.23 14.99-7.23 9.644 0 13.334 3.39 13.334 10.62v23.504h-8.738v-3.54c-2.185 2.483-4.67 3.84-9.716 3.84-7.458 0-10.17-4.217-10.17-10.093M69.803 73.804h8.964V24.39h-8.964M81.952 73.804h8.964V24.39h-8.964M102.07 53.24h12.353c-.15-3.994-1.355-6.103-5.876-6.103-4.595 0-6.102 2.11-6.478 6.102m-8.89 4.668v-1.883c0-10.244 5.273-16.346 15.517-16.346 10.02 0 14.39 5.423 14.39 15.065v4.97h-21.093c.3 4.972 1.733 7.384 6.553 7.384 4.596 0 5.575-1.207 6.1-3.77l8.44 1.283c-1.13 4.52-4.67 9.492-14.39 9.492-11.298 0-15.518-6.103-15.518-16.197" fill="#FFF"/><path d="M124.49 79.678h2.94c3.463 0 3.99-1.054 5.12-4.52l.53-1.506-11.074-33.446h9.34l1.958 6.178L137.9 61.75l4.67-15.442 1.883-6.102h8.888l-13.255 39.7c-1.658 4.97-4.82 7.305-11.45 7.305h-4.144V79.68M157.662 73.804h4.522V40.037h-4.522v33.767zm-.156-39.85h4.834v-4.46h-4.834v4.46zM165.948 40.038h4.52v3.976c1.952-2.494 5.227-4.52 10.764-4.52 7.72 0 10.136 4.288 10.136 11.696v22.614h-4.522V51.58c0-3.744-.31-7.72-6.55-7.72-7.33 0-9.827 3.976-9.827 11.93v18.014h-4.522V40.038M191.93 40.038h7.02V29.745h4.523v10.293h8.89v4.367h-8.89v18.012c0 5.616.7 7.097 6.552 7.097h2.337v4.29h-3.197c-8.11 0-10.215-2.887-10.215-10.842V44.405h-7.02v-4.367M217.293 53.84H234.6c-.155-6.55-1.868-10.058-8.263-10.058-6.47 0-8.656 4.133-9.044 10.058m-4.524 4.056v-1.95c0-9.59 3.43-16.453 13.567-16.453 10.216 0 12.866 6.238 12.866 15.127v3.43h-21.91c0 6.707 2.26 11.775 9.044 11.775 5.38 0 7.408-2.026 8.19-5.693l4.52 1.093c-1.325 5.07-5.302 8.89-12.71 8.89-10.216 0-13.568-6.86-13.568-16.22M242.213 40.038h4.52v4.6c1.796-2.727 4.758-5.067 9.516-5.067v4.29c-7.488 0-9.516 5.535-9.516 13.49v16.454h-4.52V40.038M277.16 59.612v-5.225c-9.435.935-16.22 3.43-16.22 9.512 0 3.9 2.185 6.006 6.474 6.006 7.876 0 9.745-4.68 9.745-10.294m-20.817 4.21c0-8.656 7.8-12.244 20.82-13.49v-.625c0-4.6-2.648-5.848-7.72-5.848-3.43 0-6.315 1.09-7.797 3.743l-4.836-1.56c1.873-3.743 6.474-6.55 13.18-6.55 8.577 0 11.618 3.51 11.618 9.903v24.408h-4.446V69.28c-2.027 3.12-4.91 4.835-10.37 4.835-8.577 0-10.45-5.225-10.45-10.294M283.894 57.896v-1.95c0-9.592 3.51-16.453 13.648-16.453 7.408 0 11.693 3.664 12.787 11.462l-4.757.858c-.623-4.835-2.573-7.954-8.108-7.954-7.408 0-8.97 4.99-8.97 12.007v1.873c0 6.862 2.105 12.085 8.97 12.085 5.614 0 7.717-3.04 8.34-7.563l4.602.624c-1.716 7.642-6.08 11.23-13.1 11.23-9.748 0-13.413-6.474-13.413-16.22M309.694 40.038h7.018V29.745h4.524v10.293h14.518v4.367h-14.518v18.012c0 5.616.703 7.097 6.553 7.097h2.337v4.29h-3.2c-8.11 0-10.215-2.887-10.215-10.842V44.405h-7.018v-4.367" fill="#FFF"/><path d="M335 73.804h4.52V40.037H335v33.767zm-.158-39.85h4.833v-4.46h-4.833v4.46zM357.21 74.115h-4.676l-11.306-34.078h4.68l2.962 8.967 6.08 18.795 6.24-18.796 2.962-8.967h4.523L357.21 74.115M372.013 53.84h17.312c-.158-6.55-1.872-10.058-8.267-10.058-6.47 0-8.656 4.133-9.045 10.058m-4.732 4.056v-1.95c0-9.59 3.434-16.453 13.57-16.453 10.215 0 12.866 6.238 12.866 15.127v3.43h-21.912c0 6.707 2.264 11.775 9.046 11.775 5.38 0 7.41-2.026 8.188-5.693l4.523 1.093c-1.325 5.07-5.3 8.89-12.71 8.89-10.214 0-13.57-6.86-13.57-16.22" fill="#FFF"/></g></svg>
